# xmcd
#
# Track frame offsets: 
#        150
#        21755
#        42792
#        62255
#        86262
#        110207
#        133670
#
# Disc length: 2067 seconds
#
# Revision: 1
# Processed by: cddbd v1.5.2PL0 Copyright (c) Steve Scherf et al.
# Submitted via: ExactAudioCopyFreeDBPlugin 1.0
#
DISCID=51081107
DTITLE=Christopher Williams - Every Little Thing U Do (Promo CDM)
DYEAR=1993
DGENRE=R&B
TTITLE0=Every Little Thing U Do (Album Version)
TTITLE1=Every Little Thing U Do (DawgHouse Mix)
TTITLE2=Every Little Thing U Do (Radio Mix)
TTITLE3=Every Little Thing U Do (Supermen Mix)
TTITLE4=Every Little Thing U Do (Clark and Tim Flip Da Bass)
TTITLE5=Every Little Thing U Do (Mr. Kent's Mix)
TTITLE6=Every Little Thing U Do (Instrumental)
EXTD=Entered by Slice!! in Detroit
EXTT0=
EXTT1=
EXTT2=
EXTT3=
EXTT4=
EXTT5=
EXTT6=
PLAYORDER=
